<mxfile host="app.diagrams.net" agent="Mozilla/5.0 (Windows NT 10.0; Win64; x64; rv:132.0) Gecko/20100101 Firefox/132.0" version="24.8.4">
  <diagram name="Сторінка-1" id="C9pCnW6FDcYKrtlSXyoi">
    <mxGraphModel grid="1" page="1" gridSize="10" guides="1" tooltips="1" connect="1" arrows="1" fold="1" pageScale="1" pageWidth="827" pageHeight="1169" math="0" shadow="0">
      <root>
        <mxCell id="0" />
        <mxCell id="1" parent="0" />
        <mxCell id="gZMxQZVnHd1Coq-vjo0W-2" style="edgeStyle=orthogonalEdgeStyle;rounded=0;orthogonalLoop=1;jettySize=auto;html=1;" edge="1" parent="1" source="gZMxQZVnHd1Coq-vjo0W-1" target="gZMxQZVnHd1Coq-vjo0W-3">
          <mxGeometry relative="1" as="geometry">
            <mxPoint x="-413" y="170" as="targetPoint" />
          </mxGeometry>
        </mxCell>
        <mxCell id="gZMxQZVnHd1Coq-vjo0W-1" value="Start" style="ellipse;whiteSpace=wrap;html=1;" vertex="1" parent="1">
          <mxGeometry x="-473" y="40" width="120" height="80" as="geometry" />
        </mxCell>
        <mxCell id="gZMxQZVnHd1Coq-vjo0W-6" style="edgeStyle=orthogonalEdgeStyle;rounded=0;orthogonalLoop=1;jettySize=auto;html=1;" edge="1" parent="1" source="gZMxQZVnHd1Coq-vjo0W-3" target="gZMxQZVnHd1Coq-vjo0W-7">
          <mxGeometry relative="1" as="geometry">
            <mxPoint x="-413" y="340" as="targetPoint" />
          </mxGeometry>
        </mxCell>
        <mxCell id="gZMxQZVnHd1Coq-vjo0W-3" value="&lt;p style=&quot;line-height: 100%;&quot;&gt;&lt;/p&gt;&lt;div align=&quot;justify&quot; style=&quot;color: rgb(212, 212, 212); font-family: Consolas, &amp;quot;Courier New&amp;quot;, monospace; font-weight: normal; line-height: 16px; white-space: pre; font-size: 10px;&quot;&gt;&lt;p&gt;&lt;font style=&quot;font-size: 10px;&quot; face=&quot;Helvetica&quot; color=&quot;#000000&quot;&gt;days({&quot;01.01.91&quot;, &quot;01.02.92&quot;, &quot;01.02.93&quot;});&lt;/font&gt;&lt;/p&gt;&lt;p&gt;&lt;font style=&quot;font-size: 10px;&quot; face=&quot;Helvetica&quot; color=&quot;#000000&quot;&gt;days({&quot;02.04.1596&quot;, &quot;05.12.1600&quot;, &quot;03.07.1602&quot;, &quot;04.08.1605&quot;, &quot;28.05.1607&quot;});&lt;/font&gt;&lt;/p&gt;&lt;p&gt;&lt;font style=&quot;font-size: 10px;&quot; face=&quot;Helvetica&quot; color=&quot;#000000&quot;&gt;days({&quot;08.01.2005&quot;, &quot;14.02.2007&quot;, &quot;25.03.2010&quot;, &quot;29.04.2012&quot;, &quot;28.05.2015&quot;,&quot;21.07.2016&quot;, &quot;27.11.2018&quot;, &quot;06.12.2019&quot;});&lt;/font&gt;&lt;/p&gt;&lt;/div&gt;&lt;p&gt;&lt;/p&gt;" style="shape=process;whiteSpace=wrap;html=1;backgroundOutline=1;fillColor=none;" vertex="1" parent="1">
          <mxGeometry x="-773" y="180" width="720" height="80" as="geometry" />
        </mxCell>
        <mxCell id="gZMxQZVnHd1Coq-vjo0W-7" value="End" style="ellipse;whiteSpace=wrap;html=1;" vertex="1" parent="1">
          <mxGeometry x="-473" y="330" width="120" height="80" as="geometry" />
        </mxCell>
        <mxCell id="gZMxQZVnHd1Coq-vjo0W-8" value="&lt;font style=&quot;font-size: 18px;&quot;&gt;&lt;b&gt;void days (const vector&amp;lt;string&amp;gt; &amp;amp;result)&lt;br&gt;&lt;/b&gt;&lt;/font&gt;" style="text;html=1;align=center;verticalAlign=middle;resizable=0;points=[];autosize=1;strokeColor=none;fillColor=none;" vertex="1" parent="1">
          <mxGeometry x="120" y="80" width="370" height="40" as="geometry" />
        </mxCell>
        <mxCell id="gZMxQZVnHd1Coq-vjo0W-11" value="" style="edgeStyle=orthogonalEdgeStyle;rounded=0;orthogonalLoop=1;jettySize=auto;html=1;" edge="1" parent="1" source="gZMxQZVnHd1Coq-vjo0W-9" target="gZMxQZVnHd1Coq-vjo0W-10">
          <mxGeometry relative="1" as="geometry" />
        </mxCell>
        <mxCell id="gZMxQZVnHd1Coq-vjo0W-9" value="Start" style="ellipse;whiteSpace=wrap;html=1;" vertex="1" parent="1">
          <mxGeometry x="245" y="130" width="120" height="80" as="geometry" />
        </mxCell>
        <mxCell id="gZMxQZVnHd1Coq-vjo0W-12" style="edgeStyle=orthogonalEdgeStyle;rounded=0;orthogonalLoop=1;jettySize=auto;html=1;" edge="1" parent="1" source="gZMxQZVnHd1Coq-vjo0W-10">
          <mxGeometry relative="1" as="geometry">
            <mxPoint x="305" y="360" as="targetPoint" />
          </mxGeometry>
        </mxCell>
        <mxCell id="gZMxQZVnHd1Coq-vjo0W-10" value="vector&amp;lt;int&amp;gt; countyourdays" style="rounded=0;whiteSpace=wrap;html=1;" vertex="1" parent="1">
          <mxGeometry x="245" y="250" width="120" height="60" as="geometry" />
        </mxCell>
        <mxCell id="gZMxQZVnHd1Coq-vjo0W-15" style="edgeStyle=orthogonalEdgeStyle;rounded=0;orthogonalLoop=1;jettySize=auto;html=1;" edge="1" parent="1" source="gZMxQZVnHd1Coq-vjo0W-14">
          <mxGeometry relative="1" as="geometry">
            <mxPoint x="305" y="490" as="targetPoint" />
          </mxGeometry>
        </mxCell>
        <mxCell id="gZMxQZVnHd1Coq-vjo0W-16" value="Yes" style="edgeLabel;html=1;align=center;verticalAlign=middle;resizable=0;points=[];" connectable="0" vertex="1" parent="gZMxQZVnHd1Coq-vjo0W-15">
          <mxGeometry x="-0.208" relative="1" as="geometry">
            <mxPoint as="offset" />
          </mxGeometry>
        </mxCell>
        <mxCell id="mj0qNzwGwG3aOEBVCOBl-2" style="edgeStyle=orthogonalEdgeStyle;rounded=0;orthogonalLoop=1;jettySize=auto;html=1;" edge="1" parent="1" source="gZMxQZVnHd1Coq-vjo0W-14">
          <mxGeometry relative="1" as="geometry">
            <mxPoint x="480" y="400" as="targetPoint" />
          </mxGeometry>
        </mxCell>
        <mxCell id="mj0qNzwGwG3aOEBVCOBl-3" value="No" style="edgeLabel;html=1;align=center;verticalAlign=middle;resizable=0;points=[];" connectable="0" vertex="1" parent="mj0qNzwGwG3aOEBVCOBl-2">
          <mxGeometry x="-0.1897" relative="1" as="geometry">
            <mxPoint x="3" as="offset" />
          </mxGeometry>
        </mxCell>
        <mxCell id="gZMxQZVnHd1Coq-vjo0W-14" value="&lt;div&gt;Elements string&amp;nbsp;&lt;/div&gt;&lt;div&gt;date in result?&lt;/div&gt;" style="rhombus;whiteSpace=wrap;html=1;" vertex="1" parent="1">
          <mxGeometry x="240" y="360" width="130" height="80" as="geometry" />
        </mxCell>
        <mxCell id="gZMxQZVnHd1Coq-vjo0W-18" style="edgeStyle=orthogonalEdgeStyle;rounded=0;orthogonalLoop=1;jettySize=auto;html=1;" edge="1" parent="1" source="gZMxQZVnHd1Coq-vjo0W-17">
          <mxGeometry relative="1" as="geometry">
            <mxPoint x="305" y="590" as="targetPoint" />
          </mxGeometry>
        </mxCell>
        <mxCell id="gZMxQZVnHd1Coq-vjo0W-17" value="int day, month, year&lt;br&gt;char dot&lt;br&gt;stringstream stream(date)" style="rounded=0;whiteSpace=wrap;html=1;" vertex="1" parent="1">
          <mxGeometry x="245" y="490" width="120" height="60" as="geometry" />
        </mxCell>
        <mxCell id="gZMxQZVnHd1Coq-vjo0W-21" value="" style="edgeStyle=orthogonalEdgeStyle;rounded=0;orthogonalLoop=1;jettySize=auto;html=1;" edge="1" parent="1" source="gZMxQZVnHd1Coq-vjo0W-19" target="gZMxQZVnHd1Coq-vjo0W-20">
          <mxGeometry relative="1" as="geometry" />
        </mxCell>
        <mxCell id="gZMxQZVnHd1Coq-vjo0W-19" value="stream&amp;gt;&amp;gt;day&amp;gt;&amp;gt;dot&amp;gt;&amp;gt;month&amp;gt;&amp;gt;dot&amp;gt;&amp;gt;year&lt;br&gt;(read string date)" style="rounded=0;whiteSpace=wrap;html=1;" vertex="1" parent="1">
          <mxGeometry x="192.5" y="590" width="225" height="60" as="geometry" />
        </mxCell>
        <mxCell id="mj0qNzwGwG3aOEBVCOBl-1" style="edgeStyle=orthogonalEdgeStyle;rounded=0;orthogonalLoop=1;jettySize=auto;html=1;" edge="1" parent="1" source="gZMxQZVnHd1Coq-vjo0W-20">
          <mxGeometry relative="1" as="geometry">
            <mxPoint x="305" y="330" as="targetPoint" />
            <Array as="points">
              <mxPoint x="101" y="720" />
            </Array>
          </mxGeometry>
        </mxCell>
        <mxCell id="gZMxQZVnHd1Coq-vjo0W-20" value="&lt;div&gt;countyourdays.push_back&lt;/div&gt;&lt;div&gt;(daysfrombeginning(day,month,year)&lt;/div&gt;" style="rounded=0;whiteSpace=wrap;html=1;" vertex="1" parent="1">
          <mxGeometry x="203.75" y="690" width="202.5" height="60" as="geometry" />
        </mxCell>
        <mxCell id="mj0qNzwGwG3aOEBVCOBl-8" value="" style="edgeStyle=orthogonalEdgeStyle;rounded=0;orthogonalLoop=1;jettySize=auto;html=1;" edge="1" parent="1" source="mj0qNzwGwG3aOEBVCOBl-4" target="mj0qNzwGwG3aOEBVCOBl-7">
          <mxGeometry relative="1" as="geometry" />
        </mxCell>
        <mxCell id="mj0qNzwGwG3aOEBVCOBl-4" value="int i=0" style="rounded=0;whiteSpace=wrap;html=1;" vertex="1" parent="1">
          <mxGeometry x="481.43" y="370" width="120" height="60" as="geometry" />
        </mxCell>
        <mxCell id="mj0qNzwGwG3aOEBVCOBl-9" style="edgeStyle=orthogonalEdgeStyle;rounded=0;orthogonalLoop=1;jettySize=auto;html=1;" edge="1" parent="1" source="mj0qNzwGwG3aOEBVCOBl-10">
          <mxGeometry relative="1" as="geometry">
            <mxPoint x="541.4299999999998" y="580" as="targetPoint" />
          </mxGeometry>
        </mxCell>
        <mxCell id="mj0qNzwGwG3aOEBVCOBl-7" value="&lt;div&gt;Output&lt;/div&gt;&lt;div&gt;countyourdays[i+1]&lt;/div&gt;&lt;div&gt;countyourdays[i] endl&lt;/div&gt;" style="shape=parallelogram;perimeter=parallelogramPerimeter;whiteSpace=wrap;html=1;fixedSize=1;" vertex="1" parent="1">
          <mxGeometry x="461.43" y="460" width="160" height="60" as="geometry" />
        </mxCell>
        <mxCell id="mj0qNzwGwG3aOEBVCOBl-11" style="edgeStyle=orthogonalEdgeStyle;rounded=0;orthogonalLoop=1;jettySize=auto;html=1;" edge="1" parent="1" source="mj0qNzwGwG3aOEBVCOBl-10">
          <mxGeometry relative="1" as="geometry">
            <mxPoint x="540" y="440" as="targetPoint" />
            <Array as="points">
              <mxPoint x="671" y="620" />
              <mxPoint x="671" y="440" />
            </Array>
          </mxGeometry>
        </mxCell>
        <mxCell id="mj0qNzwGwG3aOEBVCOBl-12" value="Yes" style="edgeLabel;html=1;align=center;verticalAlign=middle;resizable=0;points=[];" connectable="0" vertex="1" parent="mj0qNzwGwG3aOEBVCOBl-11">
          <mxGeometry x="-0.8803" relative="1" as="geometry">
            <mxPoint as="offset" />
          </mxGeometry>
        </mxCell>
        <mxCell id="mj0qNzwGwG3aOEBVCOBl-13" value="i++" style="edgeLabel;html=1;align=center;verticalAlign=middle;resizable=0;points=[];" connectable="0" vertex="1" parent="mj0qNzwGwG3aOEBVCOBl-11">
          <mxGeometry x="-0.2715" relative="1" as="geometry">
            <mxPoint as="offset" />
          </mxGeometry>
        </mxCell>
        <mxCell id="mj0qNzwGwG3aOEBVCOBl-14" style="edgeStyle=orthogonalEdgeStyle;rounded=0;orthogonalLoop=1;jettySize=auto;html=1;" edge="1" parent="1" source="mj0qNzwGwG3aOEBVCOBl-10" target="mj0qNzwGwG3aOEBVCOBl-15">
          <mxGeometry relative="1" as="geometry">
            <mxPoint x="541.4299999999998" y="700" as="targetPoint" />
          </mxGeometry>
        </mxCell>
        <mxCell id="mj0qNzwGwG3aOEBVCOBl-15" value="End" style="ellipse;whiteSpace=wrap;html=1;" vertex="1" parent="1">
          <mxGeometry x="481.42999999999984" y="690" width="120" height="80" as="geometry" />
        </mxCell>
        <mxCell id="mj0qNzwGwG3aOEBVCOBl-16" value="" style="edgeStyle=orthogonalEdgeStyle;rounded=0;orthogonalLoop=1;jettySize=auto;html=1;" edge="1" parent="1" source="mj0qNzwGwG3aOEBVCOBl-7" target="mj0qNzwGwG3aOEBVCOBl-10">
          <mxGeometry relative="1" as="geometry">
            <mxPoint x="541.4299999999998" y="580" as="targetPoint" />
            <mxPoint x="541" y="520" as="sourcePoint" />
          </mxGeometry>
        </mxCell>
        <mxCell id="mj0qNzwGwG3aOEBVCOBl-10" value="i&amp;lt;countyourdays.size()?" style="rhombus;whiteSpace=wrap;html=1;" vertex="1" parent="1">
          <mxGeometry x="465.54" y="580" width="151.78" height="80" as="geometry" />
        </mxCell>
        <mxCell id="mj0qNzwGwG3aOEBVCOBl-17" value="&lt;font style=&quot;font-size: 18px;&quot;&gt;&lt;b&gt;int daysfrombeginning(int day, int month, int year)&lt;br&gt;&lt;/b&gt;&lt;/font&gt;" style="text;html=1;align=center;verticalAlign=middle;resizable=0;points=[];autosize=1;strokeColor=none;fillColor=none;" vertex="1" parent="1">
          <mxGeometry x="827" y="80" width="450" height="40" as="geometry" />
        </mxCell>
        <mxCell id="mj0qNzwGwG3aOEBVCOBl-19" style="edgeStyle=orthogonalEdgeStyle;rounded=0;orthogonalLoop=1;jettySize=auto;html=1;" edge="1" parent="1" source="mj0qNzwGwG3aOEBVCOBl-18">
          <mxGeometry relative="1" as="geometry">
            <mxPoint x="1052" y="270.0000000000001" as="targetPoint" />
          </mxGeometry>
        </mxCell>
        <mxCell id="mj0qNzwGwG3aOEBVCOBl-18" value="Start" style="ellipse;whiteSpace=wrap;html=1;" vertex="1" parent="1">
          <mxGeometry x="992" y="140" width="120" height="80" as="geometry" />
        </mxCell>
        <mxCell id="mj0qNzwGwG3aOEBVCOBl-21" style="edgeStyle=orthogonalEdgeStyle;rounded=0;orthogonalLoop=1;jettySize=auto;html=1;entryX=0.5;entryY=0;entryDx=0;entryDy=0;" edge="1" parent="1" source="mj0qNzwGwG3aOEBVCOBl-20" target="mj0qNzwGwG3aOEBVCOBl-22">
          <mxGeometry relative="1" as="geometry">
            <mxPoint x="1051.9999999999995" y="370" as="targetPoint" />
          </mxGeometry>
        </mxCell>
        <mxCell id="mj0qNzwGwG3aOEBVCOBl-20" value="&lt;div&gt;int days=0&lt;/div&gt;&lt;div&gt;int daysinmonth[]={31, 28, 31, 30, 31, 30, 31, 31, 30, 31, 30, 31}&lt;/div&gt;&lt;div&gt;int i=0&lt;br&gt;&lt;/div&gt;" style="rounded=0;whiteSpace=wrap;html=1;" vertex="1" parent="1">
          <mxGeometry x="973" y="270" width="158" height="70" as="geometry" />
        </mxCell>
        <mxCell id="mj0qNzwGwG3aOEBVCOBl-23" style="edgeStyle=orthogonalEdgeStyle;rounded=0;orthogonalLoop=1;jettySize=auto;html=1;entryX=0.5;entryY=0;entryDx=0;entryDy=0;" edge="1" parent="1" source="mj0qNzwGwG3aOEBVCOBl-22" target="mj0qNzwGwG3aOEBVCOBl-24">
          <mxGeometry relative="1" as="geometry">
            <mxPoint x="1052.0000000000005" y="490" as="targetPoint" />
          </mxGeometry>
        </mxCell>
        <mxCell id="mj0qNzwGwG3aOEBVCOBl-22" value="days+=365" style="rounded=0;whiteSpace=wrap;html=1;" vertex="1" parent="1">
          <mxGeometry x="992" y="380" width="120" height="60" as="geometry" />
        </mxCell>
        <mxCell id="mj0qNzwGwG3aOEBVCOBl-26" style="edgeStyle=orthogonalEdgeStyle;rounded=0;orthogonalLoop=1;jettySize=auto;html=1;entryX=0.5;entryY=0;entryDx=0;entryDy=0;" edge="1" parent="1" source="mj0qNzwGwG3aOEBVCOBl-24" target="mj0qNzwGwG3aOEBVCOBl-25">
          <mxGeometry relative="1" as="geometry" />
        </mxCell>
        <mxCell id="mj0qNzwGwG3aOEBVCOBl-27" value="Yes" style="edgeLabel;html=1;align=center;verticalAlign=middle;resizable=0;points=[];" connectable="0" vertex="1" parent="mj0qNzwGwG3aOEBVCOBl-26">
          <mxGeometry x="-0.6675" relative="1" as="geometry">
            <mxPoint as="offset" />
          </mxGeometry>
        </mxCell>
        <mxCell id="mj0qNzwGwG3aOEBVCOBl-28" style="edgeStyle=orthogonalEdgeStyle;rounded=0;orthogonalLoop=1;jettySize=auto;html=1;" edge="1" parent="1" source="mj0qNzwGwG3aOEBVCOBl-24" target="mj0qNzwGwG3aOEBVCOBl-29">
          <mxGeometry relative="1" as="geometry">
            <mxPoint x="1051.9999999999995" y="720" as="targetPoint" />
          </mxGeometry>
        </mxCell>
        <mxCell id="mj0qNzwGwG3aOEBVCOBl-24" value="&lt;div&gt;i%4==0 and (i%100!=0 or&lt;/div&gt;&lt;div&gt;&amp;nbsp;i%400==0)?&lt;/div&gt;" style="rhombus;whiteSpace=wrap;html=1;" vertex="1" parent="1">
          <mxGeometry x="940.5" y="490" width="223" height="80" as="geometry" />
        </mxCell>
        <mxCell id="mj0qNzwGwG3aOEBVCOBl-30" style="edgeStyle=orthogonalEdgeStyle;rounded=0;orthogonalLoop=1;jettySize=auto;html=1;entryX=1;entryY=0.5;entryDx=0;entryDy=0;" edge="1" parent="1" source="mj0qNzwGwG3aOEBVCOBl-25" target="mj0qNzwGwG3aOEBVCOBl-29">
          <mxGeometry relative="1" as="geometry">
            <Array as="points">
              <mxPoint x="1230" y="755" />
            </Array>
          </mxGeometry>
        </mxCell>
        <mxCell id="mj0qNzwGwG3aOEBVCOBl-25" value="days++" style="rounded=0;whiteSpace=wrap;html=1;" vertex="1" parent="1">
          <mxGeometry x="1170" y="620" width="120" height="60" as="geometry" />
        </mxCell>
        <mxCell id="mj0qNzwGwG3aOEBVCOBl-31" style="edgeStyle=orthogonalEdgeStyle;rounded=0;orthogonalLoop=1;jettySize=auto;html=1;" edge="1" parent="1" source="mj0qNzwGwG3aOEBVCOBl-29">
          <mxGeometry relative="1" as="geometry">
            <mxPoint x="1051" y="360" as="targetPoint" />
            <Array as="points">
              <mxPoint x="890" y="755" />
              <mxPoint x="890" y="360" />
            </Array>
          </mxGeometry>
        </mxCell>
        <mxCell id="mj0qNzwGwG3aOEBVCOBl-32" value="Yes" style="edgeLabel;html=1;align=center;verticalAlign=middle;resizable=0;points=[];" connectable="0" vertex="1" parent="mj0qNzwGwG3aOEBVCOBl-31">
          <mxGeometry x="-0.8519" relative="1" as="geometry">
            <mxPoint as="offset" />
          </mxGeometry>
        </mxCell>
        <mxCell id="mj0qNzwGwG3aOEBVCOBl-33" value="i++" style="edgeLabel;html=1;align=center;verticalAlign=middle;resizable=0;points=[];" connectable="0" vertex="1" parent="mj0qNzwGwG3aOEBVCOBl-31">
          <mxGeometry x="-0.1348" relative="1" as="geometry">
            <mxPoint as="offset" />
          </mxGeometry>
        </mxCell>
        <mxCell id="mj0qNzwGwG3aOEBVCOBl-29" value="i&amp;lt;year?" style="rhombus;whiteSpace=wrap;html=1;" vertex="1" parent="1">
          <mxGeometry x="992" y="720" width="118" height="70" as="geometry" />
        </mxCell>
        <mxCell id="mj0qNzwGwG3aOEBVCOBl-34" value="" style="endArrow=none;html=1;rounded=0;exitX=0.5;exitY=1;exitDx=0;exitDy=0;" edge="1" parent="1" source="mj0qNzwGwG3aOEBVCOBl-29" target="mj0qNzwGwG3aOEBVCOBl-35">
          <mxGeometry width="50" height="50" relative="1" as="geometry">
            <mxPoint x="1050" y="840" as="sourcePoint" />
            <mxPoint x="1050" y="790" as="targetPoint" />
            <Array as="points" />
          </mxGeometry>
        </mxCell>
        <mxCell id="mj0qNzwGwG3aOEBVCOBl-35" value="1" style="ellipse;whiteSpace=wrap;html=1;aspect=fixed;" vertex="1" parent="1">
          <mxGeometry x="1040" y="840" width="20" height="20" as="geometry" />
        </mxCell>
        <mxCell id="mj0qNzwGwG3aOEBVCOBl-37" style="edgeStyle=orthogonalEdgeStyle;rounded=0;orthogonalLoop=1;jettySize=auto;html=1;" edge="1" parent="1" source="mj0qNzwGwG3aOEBVCOBl-36">
          <mxGeometry relative="1" as="geometry">
            <mxPoint x="1540" y="90" as="targetPoint" />
          </mxGeometry>
        </mxCell>
        <mxCell id="mj0qNzwGwG3aOEBVCOBl-36" value="1" style="ellipse;whiteSpace=wrap;html=1;aspect=fixed;" vertex="1" parent="1">
          <mxGeometry x="1530" y="20" width="20" height="20" as="geometry" />
        </mxCell>
        <mxCell id="mj0qNzwGwG3aOEBVCOBl-40" value="" style="edgeStyle=orthogonalEdgeStyle;rounded=0;orthogonalLoop=1;jettySize=auto;html=1;" edge="1" parent="1" source="mj0qNzwGwG3aOEBVCOBl-38" target="mj0qNzwGwG3aOEBVCOBl-39">
          <mxGeometry relative="1" as="geometry" />
        </mxCell>
        <mxCell id="mj0qNzwGwG3aOEBVCOBl-38" value="int i=0" style="rounded=0;whiteSpace=wrap;html=1;" vertex="1" parent="1">
          <mxGeometry x="1480" y="90" width="120" height="60" as="geometry" />
        </mxCell>
        <mxCell id="mj0qNzwGwG3aOEBVCOBl-42" value="" style="edgeStyle=orthogonalEdgeStyle;rounded=0;orthogonalLoop=1;jettySize=auto;html=1;" edge="1" parent="1" source="mj0qNzwGwG3aOEBVCOBl-39" target="mj0qNzwGwG3aOEBVCOBl-41">
          <mxGeometry relative="1" as="geometry" />
        </mxCell>
        <mxCell id="mj0qNzwGwG3aOEBVCOBl-39" value="days+=daysinmonth[i]" style="rounded=0;whiteSpace=wrap;html=1;" vertex="1" parent="1">
          <mxGeometry x="1475" y="200" width="130" height="60" as="geometry" />
        </mxCell>
        <mxCell id="mj0qNzwGwG3aOEBVCOBl-43" style="edgeStyle=orthogonalEdgeStyle;rounded=0;orthogonalLoop=1;jettySize=auto;html=1;" edge="1" parent="1" source="mj0qNzwGwG3aOEBVCOBl-41">
          <mxGeometry relative="1" as="geometry">
            <mxPoint x="1720" y="440" as="targetPoint" />
          </mxGeometry>
        </mxCell>
        <mxCell id="mj0qNzwGwG3aOEBVCOBl-49" value="Yes" style="edgeLabel;html=1;align=center;verticalAlign=middle;resizable=0;points=[];" connectable="0" vertex="1" parent="mj0qNzwGwG3aOEBVCOBl-43">
          <mxGeometry x="-0.5993" relative="1" as="geometry">
            <mxPoint as="offset" />
          </mxGeometry>
        </mxCell>
        <mxCell id="mj0qNzwGwG3aOEBVCOBl-45" style="edgeStyle=orthogonalEdgeStyle;rounded=0;orthogonalLoop=1;jettySize=auto;html=1;" edge="1" parent="1" source="mj0qNzwGwG3aOEBVCOBl-41">
          <mxGeometry relative="1" as="geometry">
            <mxPoint x="1540" y="550" as="targetPoint" />
          </mxGeometry>
        </mxCell>
        <mxCell id="mj0qNzwGwG3aOEBVCOBl-48" value="No" style="edgeLabel;html=1;align=center;verticalAlign=middle;resizable=0;points=[];" connectable="0" vertex="1" parent="mj0qNzwGwG3aOEBVCOBl-45">
          <mxGeometry x="-0.0677" relative="1" as="geometry">
            <mxPoint as="offset" />
          </mxGeometry>
        </mxCell>
        <mxCell id="mj0qNzwGwG3aOEBVCOBl-41" value="&lt;div&gt;i==1 and (year%4==0 and&lt;/div&gt;&lt;div&gt;&amp;nbsp;(year%100!=0 or&lt;/div&gt;&lt;div&gt;year%400==0))?&lt;br&gt;&lt;/div&gt;" style="rhombus;whiteSpace=wrap;html=1;" vertex="1" parent="1">
          <mxGeometry x="1435" y="290" width="210" height="130" as="geometry" />
        </mxCell>
        <mxCell id="mj0qNzwGwG3aOEBVCOBl-46" style="edgeStyle=orthogonalEdgeStyle;rounded=0;orthogonalLoop=1;jettySize=auto;html=1;" edge="1" parent="1" target="mj0qNzwGwG3aOEBVCOBl-47">
          <mxGeometry relative="1" as="geometry">
            <mxPoint x="1630" y="610" as="targetPoint" />
            <mxPoint x="1720" y="500" as="sourcePoint" />
            <Array as="points">
              <mxPoint x="1720" y="590" />
            </Array>
          </mxGeometry>
        </mxCell>
        <mxCell id="mj0qNzwGwG3aOEBVCOBl-44" value="days++" style="rounded=0;whiteSpace=wrap;html=1;" vertex="1" parent="1">
          <mxGeometry x="1660" y="440" width="120" height="60" as="geometry" />
        </mxCell>
        <mxCell id="mj0qNzwGwG3aOEBVCOBl-50" style="edgeStyle=orthogonalEdgeStyle;rounded=0;orthogonalLoop=1;jettySize=auto;html=1;" edge="1" parent="1" source="mj0qNzwGwG3aOEBVCOBl-47">
          <mxGeometry relative="1" as="geometry">
            <mxPoint x="1540" y="170" as="targetPoint" />
            <Array as="points">
              <mxPoint x="1400" y="590" />
              <mxPoint x="1400" y="170" />
            </Array>
          </mxGeometry>
        </mxCell>
        <mxCell id="mj0qNzwGwG3aOEBVCOBl-51" value="Yes" style="edgeLabel;html=1;align=center;verticalAlign=middle;resizable=0;points=[];" connectable="0" vertex="1" parent="mj0qNzwGwG3aOEBVCOBl-50">
          <mxGeometry x="-0.908" relative="1" as="geometry">
            <mxPoint as="offset" />
          </mxGeometry>
        </mxCell>
        <mxCell id="mj0qNzwGwG3aOEBVCOBl-52" value="i++" style="edgeLabel;html=1;align=center;verticalAlign=middle;resizable=0;points=[];" connectable="0" vertex="1" parent="mj0qNzwGwG3aOEBVCOBl-50">
          <mxGeometry x="-0.1706" relative="1" as="geometry">
            <mxPoint y="-21" as="offset" />
          </mxGeometry>
        </mxCell>
        <mxCell id="mj0qNzwGwG3aOEBVCOBl-53" style="edgeStyle=orthogonalEdgeStyle;rounded=0;orthogonalLoop=1;jettySize=auto;html=1;" edge="1" parent="1" source="mj0qNzwGwG3aOEBVCOBl-47">
          <mxGeometry relative="1" as="geometry">
            <mxPoint x="1540" y="680" as="targetPoint" />
          </mxGeometry>
        </mxCell>
        <mxCell id="mj0qNzwGwG3aOEBVCOBl-47" value="i&amp;lt;month-1?" style="rhombus;whiteSpace=wrap;html=1;" vertex="1" parent="1">
          <mxGeometry x="1450" y="550" width="180" height="80" as="geometry" />
        </mxCell>
        <mxCell id="mj0qNzwGwG3aOEBVCOBl-55" style="edgeStyle=orthogonalEdgeStyle;rounded=0;orthogonalLoop=1;jettySize=auto;html=1;" edge="1" parent="1" source="mj0qNzwGwG3aOEBVCOBl-54" target="mj0qNzwGwG3aOEBVCOBl-56">
          <mxGeometry relative="1" as="geometry">
            <mxPoint x="1540" y="789.9999999999998" as="targetPoint" />
          </mxGeometry>
        </mxCell>
        <mxCell id="mj0qNzwGwG3aOEBVCOBl-54" value="days+= day-1" style="rounded=0;whiteSpace=wrap;html=1;" vertex="1" parent="1">
          <mxGeometry x="1480" y="680" width="120" height="60" as="geometry" />
        </mxCell>
        <mxCell id="mj0qNzwGwG3aOEBVCOBl-56" value="return days" style="ellipse;whiteSpace=wrap;html=1;" vertex="1" parent="1">
          <mxGeometry x="1480" y="779.9999999999998" width="120" height="80" as="geometry" />
        </mxCell>
      </root>
    </mxGraphModel>
  </diagram>
</mxfile>
